<?xml version="1.0" encoding="utf-8" standalone="no"?>
<!DOCTYPE svg PUBLIC "-//W3C//DTD SVG 1.1//EN"
  "http://www.w3.org/Graphics/SVG/1.1/DTD/svg11.dtd">
<svg xmlns:xlink="http://www.w3.org/1999/xlink" width="227.74pt" height="178.65575pt" viewBox="0 0 227.74 178.65575" xmlns="http://www.w3.org/2000/svg" version="1.1">
 <metadata>
  <rdf:RDF xmlns:dc="http://purl.org/dc/elements/1.1/" xmlns:cc="http://creativecommons.org/ns#" xmlns:rdf="http://www.w3.org/1999/02/22-rdf-syntax-ns#">
   <cc:Work>
    <dc:type rdf:resource="http://purl.org/dc/dcmitype/StillImage"/>
    <dc:date>2022-05-19T11:31:34.583192</dc:date>
    <dc:format>image/svg+xml</dc:format>
    <dc:creator>
     <cc:Agent>
      <dc:title>Matplotlib v3.5.1, https://matplotlib.org/</dc:title>
     </cc:Agent>
    </dc:creator>
   </cc:Work>
  </rdf:RDF>
 </metadata>
 <defs>
  <style type="text/css">*{stroke-linejoin: round; stroke-linecap: butt}</style>
 </defs>
 <g id="figure_1">
  <g id="patch_1">
   <path d="M 0 178.65575 
L 227.74 178.65575 
L 227.74 0 
L 0 0 
L 0 178.65575 
z
" style="fill: none"/>
  </g>
  <g id="axes_1">
   <g id="patch_2">
    <path d="M 36.4 42.011163 
L 171.136585 42.011163 
L 171.136585 7.2 
L 36.4 7.2 
z
" style="fill: #ffffff"/>
   </g>
   <g id="matplotlib.axis_1"/>
   <g id="matplotlib.axis_2">
    <g id="text_1">
     <!-- $V_o(t)$ -->
     <g transform="translate(11.4 22.125581)">
      <text>
       <tspan style="font: 8px 'Arial'" x="0 8.988028 11.652091 13.874747" y="-0.171875">V(t)</tspan>
       <tspan style="font: 5.6px 'Arial'" x="5.475325" y="2.217625">o</tspan>
      </text>
     </g>
    </g>
   </g>
   <g id="line2d_1">
    <path d="M 36.4 35.267356 
L 37.343203 36.543366 
L 38.340304 37.524154 
L 39.431725 38.285896 
L 40.671363 38.87598 
L 42.15354 39.32763 
L 44.039946 39.659138 
L 46.687653 39.881931 
L 51.100496 40.001751 
L 53.276601 39.919502 
L 54.15917 37.102851 
L 55.055213 34.959405 
L 56.429595 31.876667 
L 56.523915 30.269918 
L 56.571075 24.355685 
L 56.63171 8.782326 
L 56.705819 13.847888 
L 56.98878 34.664727 
L 57.13026 35.371225 
L 57.143735 35.367013 
L 57.278478 35.166523 
L 58.228418 33.527732 
L 58.807815 32.463183 
L 58.969507 31.636633 
L 59.050353 29.909646 
L 59.097513 22.28725 
L 59.158147 9.088701 
L 59.225519 14.079088 
L 59.50848 34.712248 
L 59.64996 35.383561 
L 59.663435 35.379913 
L 59.804915 35.181879 
L 60.67401 33.802938 
L 61.516155 32.512505 
L 61.691322 31.713386 
L 61.778905 29.97649 
L 61.826065 22.657405 
L 61.886699 9.045049 
L 61.954071 13.941084 
L 62.237032 34.722377 
L 62.38525 35.428403 
L 62.398724 35.424419 
L 62.546942 35.225188 
L 63.362139 34.027006 
L 64.527669 32.454576 
L 64.689361 31.682197 
L 64.770207 30.105504 
L 64.817367 23.529429 
L 64.878001 9.004425 
L 64.945373 13.641857 
L 65.235071 34.806877 
L 65.383289 35.470944 
L 65.396763 35.467082 
L 65.551718 35.26857 
L 66.333229 34.201244 
L 67.855829 32.350453 
L 67.997309 31.566405 
L 68.071418 29.837194 
L 68.118578 21.296736 
L 68.172475 8.978905 
L 68.239847 13.523477 
L 68.536282 34.906496 
L 68.677763 35.510231 
L 68.691237 35.508019 
L 68.839455 35.336628 
L 69.634441 34.323595 
L 70.746073 33.346187 
L 71.332206 32.703639 
L 71.554533 32.113438 
L 71.669065 31.089687 
L 71.729699 28.064259 
L 71.810545 8.958084 
L 71.904865 16.875113 
L 72.154141 34.639178 
L 72.315833 35.545548 
L 72.443839 35.43209 
L 73.366831 34.346258 
L 74.431303 33.524118 
L 75.280186 32.793472 
L 75.536198 32.263117 
L 75.670941 31.381374 
L 75.738313 29.23889 
L 75.785473 16.958256 
L 75.832633 8.954983 
L 75.900005 13.848801 
L 76.189703 34.898138 
L 76.344658 35.577359 
L 76.351395 35.576368 
L 76.50635 35.416657 
L 77.281124 34.540427 
L 78.244539 33.823735 
L 79.74019 32.753026 
L 79.982728 32.247497 
L 80.110734 31.430322 
L 80.184843 28.995735 
L 80.23874 13.07466 
L 80.272426 8.949174 
L 80.339797 13.43577 
L 80.636233 34.958231 
L 80.791188 35.605786 
L 80.797925 35.604787 
L 80.95288 35.45159 
L 81.720917 34.624243 
L 82.670857 33.959423 
L 84.698744 32.656424 
L 84.914333 32.12413 
L 85.028865 31.178928 
L 85.0895 28.620966 
L 85.177083 8.95593 
L 85.27814 17.987586 
L 85.520678 34.731107 
L 85.68237 35.630355 
L 85.810376 35.538549 
L 86.75358 34.587156 
L 87.737206 33.973021 
L 90.075003 32.649706 
L 90.290592 32.132002 
L 90.405124 31.223236 
L 90.465758 28.888049 
L 90.553341 8.948787 
L 90.661136 18.498873 
L 90.903674 34.814419 
L 91.065366 35.652984 
L 91.200109 35.55355 
L 92.096152 34.673316 
L 93.066304 34.082804 
L 94.561955 33.467292 
L 95.653376 32.931449 
L 96.003709 32.525355 
L 96.185612 31.9515 
L 96.28667 30.745688 
L 96.340567 26.56664 
L 96.414676 8.967252 
L 96.495522 15.55268 
L 96.758271 34.768062 
L 96.919963 35.671466 
L 97.047969 35.589164 
L 98.011384 34.678972 
L 99.001748 34.112235 
L 100.456976 33.56384 
L 101.898729 32.967083 
L 102.289485 32.568534 
L 102.484863 32.025195 
L 102.592657 30.928472 
L 102.646555 27.867367 
L 102.727401 8.964503 
L 102.821721 17.116107 
L 103.070996 34.766593 
L 103.232688 35.687941 
L 103.360694 35.610289 
L 104.34432 34.70329 
L 105.334684 34.15475 
L 106.749489 33.648753 
L 108.595472 32.971658 
L 108.992965 32.590731 
L 109.19508 32.070761 
L 109.302875 31.126023 
L 109.363509 28.291475 
L 109.444355 8.962316 
L 109.545413 17.555099 
L 109.794688 34.836933 
L 109.95638 35.703522 
L 110.091123 35.616597 
L 111.027589 34.75812 
L 112.011215 34.212268 
L 113.365386 33.734157 
L 115.696445 32.937879 
L 116.073727 32.555315 
L 116.262367 32.038536 
L 116.370162 30.999029 
L 116.430796 27.351166 
L 116.504905 8.965379 
L 116.592488 15.882536 
L 116.855238 34.845751 
L 117.01693 35.716258 
L 117.151673 35.631568 
L 118.094876 34.775902 
L 119.078503 34.237173 
L 120.419199 33.773632 
L 123.053431 32.913655 
L 123.417238 32.527571 
L 123.599141 31.996348 
L 123.700199 30.965549 
L 123.760833 27.074161 
L 123.834942 8.965388 
L 123.922525 16.082671 
L 124.185275 34.880864 
L 124.346967 35.727825 
L 124.48171 35.642598 
L 125.43165 34.787344 
L 126.415277 34.253711 
L 127.755973 33.797302 
L 130.599057 32.898119 
L 130.949389 32.518647 
L 131.131293 31.973372 
L 131.23235 30.870393 
L 131.286248 27.492245 
L 131.360357 8.973628 
L 131.44794 15.784406 
L 131.710689 34.848618 
L 131.872381 35.736933 
L 132.007125 35.656176 
L 132.977276 34.788532 
L 133.96764 34.257758 
L 135.308336 33.808492 
L 138.279426 32.888663 
L 138.623022 32.511095 
L 138.804925 31.952764 
L 138.905983 30.779441 
L 138.95988 26.838812 
L 139.033989 8.972349 
L 139.114835 15.420269 
L 139.384321 34.916199 
L 139.546013 35.746594 
L 139.680757 35.661792 
L 140.637434 34.805345 
L 141.621061 34.27527 
L 142.948282 33.828803 
L 146.06759 32.872447 
L 146.404449 32.484918 
L 146.579615 31.91172 
L 146.673935 30.76939 
L 146.727832 26.763008 
L 146.801941 8.975471 
L 146.882787 15.469246 
L 147.152274 34.928726 
L 147.313966 35.754379 
L 147.448709 35.669751 
L 148.412124 34.808646 
L 149.39575 34.279878 
L 150.722972 33.835178 
L 153.909652 32.864887 
L 154.239773 32.480026 
L 154.300407 32.3452 
L 154.38799 32.416796 
L 154.60358 32.748571 
L 154.967387 33.889946 
L 155.715212 36.015188 
L 156.442826 37.427483 
L 157.197389 38.42326 
L 158.012586 39.13825 
L 158.942315 39.656256 
L 160.074159 40.025165 
L 161.596758 40.273019 
L 163.941292 40.406263 
L 168.845949 40.414857 
L 171.136585 40.392254 
L 171.136585 40.392254 
" clip-path="url(#pa4442e583f)" style="fill: none; stroke: #1f77b4; stroke-width: 2; stroke-linecap: square"/>
   </g>
  </g>
  <g id="axes_2">
   <g id="line2d_2">
    <path d="M 175.627805 38.426396 
L 181.054445 37.0521 
L 181.833963 36.606421 
L 182.283684 36.100005 
L 182.553517 35.466387 
L 182.733406 34.52942 
L 182.883313 32.38835 
L 183.003239 26.090985 
L 183.273072 8.786012 
L 183.333035 9.096689 
L 183.482942 11.829971 
L 184.562274 37.562084 
L 184.862088 39.56622 
L 185.161902 40.22838 
L 185.461717 40.387026 
L 185.911438 40.318099 
L 191.15819 38.741185 
L 195.53548 37.875197 
L 198.44368 37.210794 
L 199.49303 36.758956 
L 200.032696 36.297905 
L 200.362492 35.714268 
L 200.572362 34.891327 
L 200.722269 33.435469 
L 200.842195 29.850149 
L 201.171991 8.782326 
L 201.261935 9.568508 
L 201.471805 14.599698 
L 202.221341 34.519618 
L 202.6111 38.888252 
L 202.910914 40.039855 
L 203.210728 40.381128 
L 203.570506 40.417884 
L 204.320042 40.18247 
L 206.598631 39.455252 
L 209.566793 38.77051 
L 213.914102 38.018345 
L 217.901633 37.274186 
L 219.100891 36.840638 
L 219.70052 36.41224 
L 220.060297 35.893065 
L 220.300148 35.142046 
L 220.480037 33.685371 
L 220.54 32.605139 
L 220.54 32.605139 
" clip-path="url(#p9c98da7c45)" style="fill: none; stroke: #1f77b4; stroke-width: 2; stroke-linecap: square"/>
   </g>
  </g>
  <g id="axes_3">
   <g id="patch_3">
    <path d="M 36.4 80.303442 
L 171.136585 80.303442 
L 171.136585 45.492279 
L 36.4 45.492279 
z
" style="fill: #ffffff"/>
   </g>
   <g id="matplotlib.axis_3"/>
   <g id="matplotlib.axis_4">
    <g id="text_2">
     <!-- $V_{full}(t)$ -->
     <g transform="translate(11.4 60.41786)">
      <text>
       <tspan style="font: 8px 'Arial'" x="0 13.032169 15.696231 17.918888" y="-0.171875">V(t)</tspan>
       <tspan style="font: 5.6px 'Arial'" x="5.475325 7.031184 10.145637 11.389778" y="2.217625">full</tspan>
      </text>
     </g>
    </g>
   </g>
   <g id="line2d_3">
    <path d="M 36.4 73.5194 
L 37.370152 74.77816 
L 38.400938 75.756799 
L 39.526045 76.519597 
L 40.806107 77.115853 
L 42.335443 77.575684 
L 44.275747 77.915948 
L 46.970614 78.146786 
L 51.37672 78.274351 
L 53.276601 78.193084 
L 54.179381 75.307534 
L 55.095636 73.093774 
L 56.355486 70.21265 
L 56.456544 68.736318 
L 56.503704 64.31577 
L 56.571075 47.074605 
L 56.651921 52.80329 
L 56.928145 72.907855 
L 57.076363 73.678805 
L 57.089837 73.674385 
L 57.22458 73.474506 
L 58.302527 71.580976 
L 58.753917 70.659116 
L 58.908872 69.780003 
L 58.982981 68.003642 
L 59.030141 59.535973 
L 59.084038 47.392827 
L 59.15141 51.742691 
L 59.447845 73.083737 
L 59.589326 73.69082 
L 59.6028 73.686242 
L 59.751018 73.473724 
L 60.67401 71.982179 
L 61.435309 70.75926 
L 61.610476 69.952077 
L 61.698059 68.204308 
L 61.745219 60.902349 
L 61.805853 47.339778 
L 61.873225 52.082989 
L 62.162923 73.061779 
L 62.311141 73.736845 
L 62.324615 73.732904 
L 62.472833 73.535542 
L 63.362139 72.208187 
L 64.419874 70.732038 
L 64.588303 69.963866 
L 64.675886 68.252364 
L 64.723046 61.133718 
L 64.783681 47.301283 
L 64.851053 51.990604 
L 65.140751 73.076066 
L 65.288968 73.780246 
L 65.302443 73.778064 
L 65.443923 73.609595 
L 66.353441 72.354399 
L 67.707611 70.680646 
L 67.869303 69.891658 
L 67.950149 68.174458 
L 67.997309 60.41234 
L 68.057944 47.286059 
L 68.125315 52.193933 
L 68.415013 73.125131 
L 68.569968 73.819266 
L 68.576705 73.817993 
L 68.724923 73.651281 
L 69.594018 72.52724 
L 71.352418 70.540052 
L 71.487161 69.720453 
L 71.56127 67.584332 
L 71.60843 56.063184 
L 71.65559 47.257258 
L 71.722962 51.798722 
L 72.019397 73.191221 
L 72.174352 73.854687 
L 72.181089 73.853504 
L 72.329307 73.695783 
L 73.191664 72.648179 
L 74.229188 71.794365 
L 75.084808 71.020937 
L 75.334083 70.473299 
L 75.462089 69.587315 
L 75.529461 67.283541 
L 75.583358 51.701093 
L 75.617044 47.263103 
L 75.691153 52.246353 
L 75.980851 73.173215 
L 76.142543 73.886232 
L 76.284023 73.75203 
L 77.180067 72.725905 
L 78.183904 71.96922 
L 79.416806 71.037408 
L 79.672818 70.535155 
L 79.807561 69.746358 
L 79.88167 67.732663 
L 79.92883 56.912586 
L 79.975991 47.250891 
L 80.050099 52.349616 
L 80.339797 73.203962 
L 80.501489 73.914464 
L 80.64297 73.78806 
L 81.54575 72.804269 
L 82.529376 72.110789 
L 84.220405 70.983672 
L 84.462943 70.477887 
L 84.590949 69.641265 
L 84.658321 67.596829 
L 84.705481 55.993692 
L 84.752641 47.244471 
L 84.820013 51.82538 
L 85.116448 73.249015 
L 85.27814 73.939205 
L 85.426358 73.809333 
L 86.302189 72.889747 
L 87.272341 72.234913 
L 89.488869 70.874431 
L 89.697721 70.33892 
L 89.812253 69.319096 
L 89.872888 66.213198 
L 89.953734 47.247835 
L 90.048054 55.076981 
L 90.304066 73.068927 
L 90.465758 73.959413 
L 90.593764 73.876162 
L 91.664974 72.822346 
L 92.675549 72.214704 
L 95.080717 70.904861 
L 95.296306 70.415914 
L 95.417575 69.529047 
L 95.484947 66.904507 
L 95.57253 47.254681 
L 95.673588 56.017584 
L 95.922863 73.097204 
L 96.084555 73.978158 
L 96.212561 73.897966 
L 97.290507 72.86597 
L 98.301082 72.280294 
L 100.025797 71.590474 
L 100.87468 71.127447 
L 101.198064 70.708695 
L 101.366493 70.096152 
L 101.460813 68.722904 
L 101.507973 64.390032 
L 101.575345 47.263626 
L 101.656191 53.095403 
L 101.932415 73.154537 
L 102.094107 73.995036 
L 102.22885 73.90705 
L 103.246162 72.940884 
L 104.236526 72.366088 
L 105.691754 71.806747 
L 107.106558 71.207628 
L 107.490577 70.811388 
L 107.685955 70.266795 
L 107.793749 69.17169 
L 107.847647 66.14937 
L 107.928493 47.260038 
L 108.022813 55.160953 
L 108.278825 73.115091 
L 108.440517 74.008176 
L 108.568524 73.934333 
L 109.680156 72.911586 
L 110.690731 72.357689 
L 112.186382 71.819589 
L 113.708981 71.221477 
L 114.113211 70.828216 
L 114.308589 70.323817 
L 114.423121 69.288747 
L 114.483755 66.002072 
L 114.564601 47.268726 
L 114.652185 54.471909 
L 114.914934 73.142314 
L 115.076626 74.02075 
L 115.211369 73.940276 
L 116.269104 72.966122 
L 117.266205 72.413169 
L 118.68101 71.905712 
L 120.574154 71.212969 
L 120.971646 70.829406 
L 121.167024 70.332926 
L 121.281556 69.331832 
L 121.342191 66.316265 
L 121.423037 47.261879 
L 121.517357 55.018198 
L 121.773369 73.11282 
L 121.935061 74.030611 
L 122.063067 73.9619 
L 123.208386 72.930658 
L 124.225698 72.39147 
L 125.687663 71.891836 
L 127.580806 71.224291 
L 127.991773 70.844383 
L 128.193888 70.350164 
L 128.30842 69.405727 
L 128.369055 66.807694 
L 128.456638 47.274265 
L 128.557695 56.162185 
L 128.806971 73.163181 
L 128.968663 74.040965 
L 129.103406 73.962774 
L 130.181352 72.982968 
L 131.18519 72.437604 
L 132.586521 71.950846 
L 134.762625 71.204863 
L 135.160118 70.822602 
L 135.355496 70.32045 
L 135.470028 69.282734 
L 135.530662 65.961505 
L 135.611508 47.275498 
L 135.699092 54.51608 
L 135.961841 73.170494 
L 136.123533 74.049314 
L 136.258276 73.971948 
L 137.34296 72.988764 
L 138.346798 72.445803 
L 139.741391 71.964788 
L 142.011816 71.19872 
L 142.402572 70.821466 
L 142.59795 70.319023 
L 142.712481 69.277735 
L 142.773116 65.924367 
L 142.853962 47.27843 
L 142.941545 54.548609 
L 143.204295 73.180835 
L 143.365987 74.056834 
L 143.50073 73.979769 
L 144.592151 72.992194 
L 145.595989 72.450924 
L 146.990582 71.97242 
L 149.314904 71.197208 
L 149.70566 70.819981 
L 149.901038 70.31596 
L 150.008832 69.389755 
L 150.069467 66.708489 
L 150.150313 47.283165 
L 150.258108 56.281204 
L 150.500646 73.082141 
L 150.669075 74.063718 
L 150.803818 73.986267 
L 151.901976 72.99374 
L 152.905814 72.453774 
L 154.29367 71.978902 
L 154.327356 72.068398 
L 155.088656 74.245455 
L 155.81627 75.668638 
L 156.570832 76.674951 
L 157.386029 77.399708 
L 158.315758 77.926644 
L 159.447602 78.303602 
L 160.956727 78.557037 
L 163.260838 78.695616 
L 167.936431 78.709259 
L 171.136585 78.675909 
L 171.136585 78.675909 
" clip-path="url(#p5caefb99a4)" style="fill: none; stroke: #ff7f0e; stroke-width: 2; stroke-linecap: square"/>
   </g>
  </g>
  <g id="axes_4">
   <g id="line2d_4">
    <path d="M 175.627805 76.537871 
L 180.244946 75.324064 
L 181.084427 74.869027 
L 181.534148 74.403693 
L 181.833963 73.771312 
L 182.043833 72.727445 
L 182.19374 70.566941 
L 182.313666 64.249203 
L 182.583499 47.08217 
L 182.643462 47.369973 
L 182.793369 50.020212 
L 183.902682 75.990821 
L 184.202496 77.895028 
L 184.502311 78.526742 
L 184.802125 78.679598 
L 185.251847 78.611932 
L 191.338079 76.791288 
L 198.203828 75.164935 
L 198.893401 74.722619 
L 199.28316 74.228639 
L 199.552993 73.495602 
L 199.732882 72.291284 
L 199.852807 70.085717 
L 199.972733 62.483316 
L 200.212585 47.089114 
L 200.242566 47.0965 
L 200.33251 47.960432 
L 200.54238 53.009851 
L 201.261935 72.252752 
L 201.681675 77.124187 
L 201.981489 78.305078 
L 202.281304 78.66447 
L 202.6111 78.716759 
L 203.270691 78.52866 
L 205.999002 77.641771 
L 209.057109 76.923986 
L 213.794176 76.073667 
L 216.79232 75.440926 
L 217.871652 75.010222 
L 218.441299 74.561966 
L 218.771095 74.037727 
L 219.010947 73.193522 
L 219.160854 71.881867 
L 219.28078 68.846603 
L 219.400705 58.553932 
L 219.580594 47.235591 
L 219.610575 47.074605 
L 219.670538 47.292807 
L 219.820445 49.826412 
L 220.300148 64.512813 
L 220.54 70.243431 
L 220.54 70.243431 
" clip-path="url(#p2721de1fc2)" style="fill: none; stroke: #ff7f0e; stroke-width: 2; stroke-linecap: square"/>
   </g>
  </g>
  <g id="axes_5">
   <g id="patch_4">
    <path d="M 36.4 118.595721 
L 171.136585 118.595721 
L 171.136585 83.784558 
L 36.4 83.784558 
z
" style="fill: #ffffff"/>
   </g>
   <g id="matplotlib.axis_5"/>
   <g id="matplotlib.axis_6">
    <g id="text_3">
     <!-- $V_{\backslash APT}(t)$ -->
     <g transform="translate(11.4 98.71014)">
      <text>
       <tspan style="font: 8px 'Arial'" x="0 18.32045 20.984512 23.207169" y="-0.171875">V(t)</tspan>
       <tspan style="font: 5.6px 'Arial'" x="5.475325 7.031184 10.766341 14.501497" y="2.217625">\APT</tspan>
      </text>
     </g>
    </g>
   </g>
   <g id="line2d_5">
    <path d="M 36.4 111.883573 
L 37.424049 113.095635 
L 38.51547 114.048509 
L 39.714686 114.801591 
L 41.089068 115.397824 
L 42.726199 115.85878 
L 44.807983 116.20302 
L 47.69149 116.438126 
L 52.360347 116.56951 
L 53.276601 116.483038 
L 54.219804 113.533141 
L 55.176482 111.247527 
L 56.220743 109.332074 
L 56.665396 108.338713 
L 56.806876 107.373469 
L 56.874248 104.837555 
L 56.948357 85.366884 
L 57.062889 93.948478 
L 57.318901 110.977303 
L 57.39301 111.322933 
L 57.453644 111.230677 
L 58.39011 108.973294 
L 58.733706 108.172174 
L 58.861712 107.253893 
L 58.929084 104.673621 
L 59.00993 85.643225 
L 59.117724 94.714942 
L 59.360262 110.883349 
L 59.447845 111.300984 
L 59.495005 111.232175 
L 60.465157 109.153465 
L 60.936759 108.339354 
L 61.091714 107.555808 
L 61.165823 105.962204 
L 61.212983 97.411749 
L 61.260143 85.59932 
L 61.334252 90.24397 
L 61.630687 111.097983 
L 61.704796 111.362072 
L 61.758693 111.283586 
L 62.560416 109.624965 
L 63.584465 108.296797 
L 63.725946 107.561008 
L 63.800055 105.910447 
L 63.847215 96.505535 
L 63.894375 85.536542 
L 63.968484 90.322421 
L 64.271656 111.212608 
L 64.339028 111.429413 
L 64.399662 111.34539 
L 65.107065 109.950496 
L 65.827942 109.352012 
L 66.56903 108.662359 
L 66.798094 108.138193 
L 66.919363 107.235865 
L 66.979997 104.8885 
L 67.060843 85.505007 
L 67.175375 94.984539 
L 67.417913 111.05272 
L 67.512233 111.492656 
L 67.559393 111.433517 
L 68.32743 110.101732 
L 69.075256 109.60757 
L 70.39574 108.743657 
L 70.665227 108.271603 
L 70.79997 107.569417 
L 70.874079 105.846806 
L 70.914502 98.567514 
L 70.961662 85.475398 
L 71.035771 89.724303 
L 71.352418 111.365464 
L 71.41979 111.551422 
L 71.480424 111.473156 
L 72.113718 110.3802 
L 72.740274 109.976924 
L 74.161816 109.379117 
L 75.212814 108.845026 
L 75.549672 108.435761 
L 75.718102 107.866787 
L 75.812422 106.601744 
L 75.859582 102.291872 
L 75.920216 85.460741 
L 76.001062 90.658807 
L 76.297498 111.315538 
L 76.378344 111.604134 
L 76.432241 111.543597 
L 77.099221 110.501748 
L 77.7662 110.13592 
L 79.113633 109.677291 
L 81.619859 108.856561 
L 81.990403 108.476354 
L 82.172307 107.95145 
L 82.273364 106.847287 
L 82.327261 102.784336 
L 82.387896 85.466916 
L 82.475479 91.162346 
L 82.765177 111.334173 
L 82.85276 111.652651 
L 82.899921 111.603221 
L 83.600586 110.605662 
L 84.3282 110.257099 
L 85.716056 109.8555 
L 88.383974 109.362377 
L 89.960471 108.963906 
L 90.472495 108.628098 
L 90.708296 108.212279 
L 90.836302 107.50266 
L 90.910411 105.432564 
L 90.957571 91.76926 
L 90.991257 85.474467 
L 91.065366 89.726978 
L 91.38875 111.533269 
L 91.456122 111.700237 
L 91.516756 111.634305 
L 92.116364 110.771335 
L 92.769869 110.44057 
L 94.056668 110.059514 
L 96.064343 109.716606 
L 101.144166 108.932804 
L 101.642717 108.606693 
L 101.87178 108.194213 
L 101.999787 107.449188 
L 102.067158 105.578678 
L 102.107581 96.392995 
L 102.154741 85.484429 
L 102.22885 90.212696 
L 102.53876 111.510896 
L 102.619606 111.745906 
L 102.673503 111.689843 
L 103.306797 110.834802 
L 104.020936 110.493033 
L 105.348158 110.118488 
L 107.362571 109.801051 
L 114.524178 108.84463 
L 114.921671 108.511503 
L 115.117049 108.049023 
L 115.224844 107.16972 
L 115.285478 104.340143 
L 115.359587 85.485107 
L 115.460644 93.181111 
L 115.723394 111.341711 
L 115.824451 111.788534 
L 115.864874 111.756762 
L 116.693546 110.792885 
L 117.623275 110.413323 
L 119.098714 110.057995 
L 121.396088 109.7568 
L 128.429689 108.953406 
L 128.968663 108.644368 
L 129.217938 108.25207 
L 129.352681 107.594972 
L 129.42679 106.010568 
L 129.467213 99.734235 
L 129.52111 85.482603 
L 129.595219 90.155312 
L 129.905129 111.57324 
L 129.985975 111.825464 
L 130.039872 111.778592 
L 130.7338 110.916157 
L 131.54226 110.535483 
L 132.876219 110.158268 
L 134.856946 109.848851 
L 138.845348 109.499881 
L 142.261091 109.11763 
L 143.177346 108.819942 
L 143.54789 108.489202 
L 143.736531 108.014204 
L 143.844325 107.023353 
L 143.898223 104.175019 
L 143.965594 85.488971 
L 144.073389 93.336036 
L 144.336139 111.413255 
L 144.437196 111.856721 
L 144.477619 111.828485 
L 145.380399 110.842416 
L 146.3775 110.42949 
L 147.839465 110.072164 
L 150.096416 109.772125 
L 154.307144 109.445423 
L 155.135816 111.944451 
L 155.883641 113.497913 
L 156.658415 114.612493 
L 157.487087 115.422087 
L 158.410079 116.013203 
L 159.508237 116.445661 
L 160.916304 116.749083 
L 162.930717 116.937817 
L 166.454255 117.012779 
L 171.136585 116.989961 
L 171.136585 116.989961 
" clip-path="url(#p6ce4b9aedc)" style="fill: none; stroke: #2ca02c; stroke-width: 2; stroke-linecap: square"/>
   </g>
  </g>
  <g id="axes_6">
   <g id="line2d_6">
    <path d="M 175.627805 113.877468 
L 177.336747 113.42843 
L 178.146246 113.002789 
L 178.565986 112.553265 
L 178.835819 111.950478 
L 179.015707 111.034961 
L 179.165615 108.805361 
L 179.28554 101.2326 
L 179.49541 85.384627 
L 179.555373 85.565354 
L 179.705281 87.654135 
L 180.035076 96.926455 
L 180.544761 109.920552 
L 180.994482 115.819698 
L 181.264315 116.776956 
L 181.504167 116.948958 
L 181.803981 116.854847 
L 183.992626 115.702681 
L 185.581643 115.33143 
L 188.639749 114.883364 
L 199.193216 113.470955 
L 200.092659 113.071426 
L 200.572362 112.624649 
L 200.872176 112.017863 
L 201.052065 111.188432 
L 201.201972 109.300541 
L 201.321898 103.31256 
L 201.561749 85.366884 
L 201.651694 85.93775 
L 201.831582 89.236093 
L 202.940896 114.971643 
L 203.210728 116.580878 
L 203.45058 116.972307 
L 203.690431 116.999764 
L 204.140153 116.758344 
L 205.339411 116.097561 
L 206.538668 115.73728 
L 208.607387 115.383394 
L 212.744826 114.932185 
L 220.54 114.333049 
L 220.54 114.333049 
" clip-path="url(#p3277282bd2)" style="fill: none; stroke: #2ca02c; stroke-width: 2; stroke-linecap: square"/>
   </g>
  </g>
  <g id="axes_7">
   <g id="patch_5">
    <path d="M 36.4 156.888 
L 171.136585 156.888 
L 171.136585 122.076837 
L 36.4 122.076837 
z
" style="fill: #ffffff"/>
   </g>
   <g id="matplotlib.axis_7">
    <g id="text_4">
     <!-- $V_{\backslash APA}(t)$ -->
     <g transform="translate(11.4 137.002419)">
      <text>
       <tspan style="font: 8px 'Arial'" x="0 18.634903 21.298966 23.521622" y="-0.171875">V(t)</tspan>
       <tspan style="font: 5.6px 'Arial'" x="5.475325 7.031184 10.766341 14.501497" y="2.217625">\APA</tspan>
      </text>
     </g>
    </g>
   </g>
   <g id="line2d_7">
    <path d="M 36.4 150.183778 
L 37.343203 151.49403 
L 38.333567 152.496422 
L 39.411513 153.273846 
L 40.63094 153.877542 
L 42.086168 154.342789 
L 43.925415 154.686435 
L 46.472063 154.920106 
L 50.615421 155.050488 
L 53.269864 155.000004 
L 54.15917 152.140687 
L 55.055213 149.978377 
L 56.092737 148.074514 
L 56.463281 147.175511 
L 56.604761 146.16193 
L 56.672133 143.867825 
L 56.72603 129.093821 
L 56.766453 123.659163 
L 56.833825 128.316006 
L 57.123523 149.735297 
L 57.258266 150.354639 
L 57.278478 150.345423 
L 57.44017 150.078298 
L 58.154309 148.880356 
L 59.24573 147.188461 
L 59.393948 146.363119 
L 59.474794 144.410825 
L 59.521954 135.8973 
L 59.582589 123.998667 
L 59.643223 128.367506 
L 59.932921 149.765879 
L 60.067665 150.38051 
L 60.087876 150.374273 
L 60.242831 150.151553 
L 60.936759 149.129073 
L 62.540205 147.061738 
L 62.674948 146.12485 
L 62.74232 143.931731 
L 62.796217 130.018242 
L 62.83664 123.928159 
L 62.904012 128.437724 
L 63.19371 149.813677 
L 63.33519 150.44624 
L 63.348665 150.442945 
L 63.503619 150.245948 
L 64.197547 149.328665 
L 65.174437 148.465799 
L 66.110903 147.592126 
L 66.360178 147.019757 
L 66.488184 146.085892 
L 66.555556 143.660434 
L 66.622927 125.435868 
L 66.649876 123.880232 
L 66.71051 128.064801 
L 67.013683 149.97691 
L 67.148426 150.501767 
L 67.168638 150.496314 
L 67.343804 150.277407 
L 67.997309 149.488887 
L 68.933775 148.741262 
L 70.523746 147.532766 
L 70.75281 146.996752 
L 70.874079 146.116862 
L 70.941451 143.82091 
L 70.995348 129.193608 
L 71.035771 123.856589 
L 71.103143 128.630639 
L 71.392841 149.899746 
L 71.541059 150.546418 
L 71.547796 150.545477 
L 71.696013 150.390309 
L 72.410153 149.57438 
L 73.346619 148.885316 
L 75.509249 147.431713 
L 75.711364 146.871928 
L 75.825896 145.750852 
L 75.886531 142.150145 
L 75.967377 123.855719 
L 76.05496 131.207804 
L 76.310972 149.737234 
L 76.472664 150.5827 
L 76.607407 150.461943 
L 77.395656 149.604766 
L 78.352333 148.948358 
L 80.002939 148.141561 
L 80.710342 147.656481 
L 80.993303 147.205242 
L 81.148257 146.49786 
L 81.235841 144.738873 
L 81.283001 137.652769 
L 81.343635 123.850907 
L 81.411007 128.544661 
L 81.700705 149.935887 
L 81.85566 150.612516 
L 81.862397 150.611489 
L 82.017352 150.456775 
L 82.738229 149.689189 
L 83.681432 149.045351 
L 85.049077 148.407065 
L 86.281978 147.768778 
L 86.632311 147.344822 
L 86.814214 146.757429 
L 86.915272 145.57201 
L 86.969169 141.974978 
L 87.050015 123.866108 
L 87.130861 130.527787 
L 87.39361 149.797676 
L 87.555302 150.638089 
L 87.690046 150.525967 
L 88.51198 149.669952 
L 89.475395 149.039873 
L 90.869988 148.419975 
L 92.170261 147.783909 
L 92.534068 147.367162 
L 92.722709 146.792499 
L 92.823766 145.722404 
L 92.884401 141.923881 
L 92.965247 123.870542 
L 93.046093 130.570699 
L 93.308842 149.82046 
L 93.470534 150.660244 
L 93.605278 150.550599 
L 94.447423 149.68167 
L 95.410838 149.057553 
L 96.78522 148.455638 
L 98.200025 147.790512 
L 98.570569 147.377 
L 98.75921 146.824496 
L 98.867004 145.710132 
L 98.927639 141.82763 
L 99.001748 123.867995 
L 99.089331 130.643843 
L 99.35208 149.84578 
L 99.513772 150.679974 
L 99.648516 150.571715 
L 100.504136 149.69188 
L 101.474288 149.065633 
L 102.841932 148.471124 
L 104.310635 147.793105 
L 104.687916 147.374314 
L 104.876557 146.818337 
L 104.984351 145.684165 
L 105.044986 141.619734 
L 105.119094 123.859012 
L 105.19994 129.967965 
L 105.469427 149.879459 
L 105.631119 150.697837 
L 105.765862 150.589716 
L 106.641694 149.691991 
L 107.611846 149.067762 
L 108.979491 148.475563 
L 110.468404 147.792195 
L 110.845686 147.373427 
L 111.034326 146.816391 
L 111.142121 145.675877 
L 111.202756 141.551742 
L 111.276864 123.857289 
L 111.35771 130.01466 
L 111.627197 149.898775 
L 111.788889 150.714099 
L 111.923632 150.606825 
L 112.812938 149.695221 
L 113.78309 149.070464 
L 115.150735 148.478236 
L 116.646386 147.793766 
L 117.023667 147.377481 
L 117.212308 146.828176 
L 117.320102 145.726934 
L 117.380737 141.957423 
L 117.461583 123.870407 
L 117.542429 130.557247 
L 117.805178 149.873193 
L 117.96687 150.728793 
L 118.101614 150.625618 
L 119.017868 149.687948 
L 119.98802 149.065405 
L 121.362402 148.471614 
L 122.844579 147.790019 
L 123.22186 147.368257 
L 123.410501 146.801262 
L 123.518295 145.607701 
L 123.572193 142.203855 
L 123.653039 123.858757 
L 123.740622 131.200964 
L 123.996634 149.858428 
L 124.158326 150.74228 
L 124.286332 150.650147 
L 125.269958 149.652475 
L 126.253585 149.03419 
L 127.675127 148.429898 
L 129.036034 147.796688 
L 129.413316 147.383741 
L 129.601956 146.845527 
L 129.709751 145.798987 
L 129.770385 142.488099 
L 129.851231 123.854668 
L 129.938815 130.964861 
L 130.201564 149.948813 
L 130.363256 150.75553 
L 130.497999 150.649891 
L 131.427728 149.695007 
L 132.39788 149.068731 
L 133.765525 148.474446 
L 135.247701 147.791437 
L 135.624983 147.370617 
L 135.813623 146.807562 
L 135.921418 145.635806 
L 135.975315 142.379966 
L 136.056161 123.854821 
L 136.143745 131.059156 
L 136.406494 149.970486 
L 136.568186 150.76734 
L 136.702929 150.661488 
L 137.646133 149.692425 
L 138.616284 149.066182 
L 139.983929 148.471333 
L 141.452631 147.79298 
L 141.829913 147.373708 
L 142.018553 146.816204 
L 142.126348 145.674049 
L 142.186983 141.534854 
L 142.261091 123.856919 
L 142.341937 130.032604 
L 142.611424 149.953307 
L 142.773116 150.778096 
L 142.907859 150.675022 
L 143.871274 149.685627 
L 144.848163 149.057279 
L 146.229282 148.458429 
L 147.664299 147.790589 
L 148.034843 147.379381 
L 148.223483 146.832165 
L 148.331278 145.742681 
L 148.391913 142.076077 
L 148.472759 123.864093 
L 148.553605 130.475174 
L 148.816354 149.909926 
L 148.978046 150.787725 
L 149.106052 150.69738 
L 150.150313 149.63743 
L 151.140676 149.017401 
L 152.589167 148.401858 
L 153.869229 147.793932 
L 154.24651 147.37479 
L 154.300407 147.267569 
L 154.374516 147.364431 
L 154.617054 147.883882 
L 156.00491 151.560429 
L 156.759473 152.753038 
L 157.561196 153.61502 
L 158.443764 154.240388 
L 159.481288 154.69767 
L 160.788298 155.019672 
L 162.607333 155.22229 
L 165.605372 155.30474 
L 171.136585 155.260213 
L 171.136585 155.260213 
" clip-path="url(#p8f502a5ac1)" style="fill: none; stroke: #d62728; stroke-width: 2; stroke-linecap: square"/>
   </g>
   <g id="text_5">
    <text style="font: 8px 'Arial'; text-anchor: start" x="-6.5" y="161.644074" transform="rotate(-0, -6.5, 161.644074)">100 mV</text>
   </g>
   <g id="patch_6">
    <path d="M 27.763542 164.8395 
L 44.606458 164.8395 
L 44.606458 164.8395 
L 27.763542 164.8395 
L 27.763542 164.8395 
z
" style="fill: none; stroke: #000000; stroke-linejoin: miter"/>
   </g>
   <g id="patch_7">
    <path d="M 27.763542 164.8395 
L 27.763542 164.8395 
L 27.763542 144.996149 
L 27.763542 144.996149 
L 27.763542 164.8395 
z
" style="fill: none; stroke: #000000; stroke-linejoin: miter"/>
   </g>
   <g id="text_6">
    <text style="font: 8px 'Arial'; text-anchor: start" x="23.06875" y="172.56575" transform="rotate(-0, 23.06875, 172.56575)">100 ms</text>
   </g>
  </g>
  <g id="axes_8">
   <g id="line2d_8">
    <path d="M 175.627805 152.219639 
L 177.456673 151.729204 
L 178.296153 151.295657 
L 178.745874 150.840099 
L 179.045689 150.220656 
L 179.255559 149.224959 
L 179.405466 147.299269 
L 179.525392 142.195209 
L 179.825206 123.660192 
L 179.885169 123.990386 
L 180.035076 126.772572 
L 181.114408 152.496871 
L 181.414223 154.497011 
L 181.684055 155.089908 
L 181.98387 155.257727 
L 182.40361 155.20226 
L 187.560417 153.757282 
L 191.428023 153.089616 
L 198.983346 151.84556 
L 200.032696 151.420829 
L 200.572362 150.984507 
L 200.902158 150.448249 
L 201.142009 149.584447 
L 201.291916 148.261424 
L 201.411842 145.320973 
L 201.561749 132.497971 
L 201.741638 123.707047 
L 201.771619 123.659163 
L 201.801601 123.782659 
L 201.921527 125.506058 
L 202.221341 134.353891 
L 202.731025 147.806368 
L 203.150766 153.396144 
L 203.45058 154.816735 
L 203.720413 155.215297 
L 204.050209 155.30489 
L 204.619856 155.162691 
L 207.258223 154.351665 
L 210.316329 153.710385 
L 214.483749 153.075863 
L 220.54 152.299894 
L 220.54 152.299894 
" clip-path="url(#p3d063dab59)" style="fill: none; stroke: #d62728; stroke-width: 2; stroke-linecap: square"/>
   </g>
   <g id="patch_8">
    <path d="M 176.644195 164.8395 
L 184.139555 164.8395 
L 184.139555 164.8395 
L 176.644195 164.8395 
L 176.644195 164.8395 
z
" style="fill: none; stroke: #000000; stroke-linejoin: miter"/>
   </g>
   <g id="text_7">
    <text style="font: 8px 'Arial'; text-anchor: start" x="169.5" y="172.56575" transform="rotate(-0, 169.5, 172.56575)">10 ms</text>
   </g>
  </g>
 </g>
 <defs>
  <clipPath id="pa4442e583f">
   <rect x="36.4" y="7.2" width="134.736585" height="34.811163"/>
  </clipPath>
  <clipPath id="p9c98da7c45">
   <rect x="175.627805" y="7.2" width="44.912195" height="34.811163"/>
  </clipPath>
  <clipPath id="p5caefb99a4">
   <rect x="36.4" y="45.492279" width="134.736585" height="34.811163"/>
  </clipPath>
  <clipPath id="p2721de1fc2">
   <rect x="175.627805" y="45.492279" width="44.912195" height="34.811163"/>
  </clipPath>
  <clipPath id="p6ce4b9aedc">
   <rect x="36.4" y="83.784558" width="134.736585" height="34.811163"/>
  </clipPath>
  <clipPath id="p3277282bd2">
   <rect x="175.627805" y="83.784558" width="44.912195" height="34.811163"/>
  </clipPath>
  <clipPath id="p8f502a5ac1">
   <rect x="36.4" y="122.076837" width="134.736585" height="34.811163"/>
  </clipPath>
  <clipPath id="p3d063dab59">
   <rect x="175.627805" y="122.076837" width="44.912195" height="34.811163"/>
  </clipPath>
 </defs>
</svg>
